<svg xmlns="http://www.w3.org/2000/svg" data-name="Layer 1" viewBox="0 0 30 30" class="category-icon"><title>UL_CATEGORY_ICONS</title><path d="M24.55 11.16l-.75-1.06a.71.71 0 0 1-.12-.45l.1-1.27a1.74 1.74 0 0 0-1-1.69l-1.2-.55a.72.72 0 0 1-.35-.34l-.59-1.15a1.77 1.77 0 0 0-1.72-1l-1.33.09a.79.79 0 0 1-.5-.12L16 2.94a1.8 1.8 0 0 0-2 0l-1.1.72a.78.78 0 0 1-.5.12l-1.33-.09a1.77 1.77 0 0 0-1.72 1L8.78 5.8a.72.72 0 0 1-.35.34l-1.2.55a1.74 1.74 0 0 0-1 1.69l.1 1.27a.66.66 0 0 1-.12.45l-.76 1.06a1.67 1.67 0 0 0 0 2l.75 1.01a.66.66 0 0 1 .12.45l-.1 1.27a1.73 1.73 0 0 0 1 1.68l1.2.56a.72.72 0 0 1 .35.34l.58 1.15a1.8 1.8 0 0 0 1.72 1h.66v6.3a.49.49 0 0 0 .82.37l2.35-2 2.52 2.07a.54.54 0 0 0 .53.07.51.51 0 0 0 .29-.46v-6.33h.67a1.8 1.8 0 0 0 1.72-1l.58-1.15a.7.7 0 0 1 .36-.34l1.19-.56a1.73 1.73 0 0 0 1-1.68l-.1-1.27a.66.66 0 0 1 .13-.45l.74-1.06a1.67 1.67 0 0 0 .02-1.97zm-9.31 13a.51.51 0 0 0-.65 0l-1.84 1.6v-5.23a.53.53 0 0 1 .17.08l1.08.72a1.79 1.79 0 0 0 1 .3 1.77 1.77 0 0 0 1-.3l1.1-.72a.46.46 0 0 1 .16-.07v5.26zm8.5-11.61L23 13.59a1.67 1.67 0 0 0-.31 1.1l.09 1.31a.7.7 0 0 1-.43.69l-1.19.56a1.7 1.7 0 0 0-.83.8l-.58 1.15a.78.78 0 0 1-.76.41l-1.33-.09a1.8 1.8 0 0 0-1.12.29l-1.1.71a.8.8 0 0 1-.88 0l-1.1-.72a1.75 1.75 0 0 0-1-.3h-.12l-1.34.08a.79.79 0 0 1-.76-.41L9.68 18a1.79 1.79 0 0 0-.83-.8l-1.2-.56a.71.71 0 0 1-.43-.64l.1-1.28A1.67 1.67 0 0 0 7 13.59l-.74-1.06a.68.68 0 0 1 0-.79L7 10.68a1.7 1.7 0 0 0 .31-1.11L7.22 8.3a.73.73 0 0 1 .43-.7l1.2-.55a1.79 1.79 0 0 0 .83-.8l.58-1.15a.75.75 0 0 1 .74-.41l1.33.09a1.78 1.78 0 0 0 1.12-.29l1.1-.72a.82.82 0 0 1 .88 0l1.1.72a1.78 1.78 0 0 0 1.12.29L19 4.69a.76.76 0 0 1 .76.41l.57 1.15a1.81 1.81 0 0 0 .84.8l1.18.55a.71.71 0 0 1 .43.7l-.1 1.28a1.67 1.67 0 0 0 .31 1.1l.75 1.06a.68.68 0 0 1 0 .79zm-8.41-3.28l.86 1.73a.36.36 0 0 0 .27.2l1.93.28a.36.36 0 0 1 .2.62l-1.39 1.34a.36.36 0 0 0-.11.32l.33 1.9a.36.36 0 0 1-.53.39l-1.73-.9a.36.36 0 0 0-.34 0L13.1 16a.36.36 0 0 1-.53-.39l.33-1.9a.36.36 0 0 0-.11-.32l-1.38-1.29a.36.36 0 0 1 .2-.62l1.93-.28a.36.36 0 0 0 .27-.2l.87-1.73a.36.36 0 0 1 .65 0z"></path></svg>