<?xml version="1.0" encoding="utf-8"?>
<!-- Generator: Adobe Illustrator 26.3.1, SVG Export Plug-In . SVG Version: 6.00 Build 0)  -->
<svg version="1.1" id="Layer_1" xmlns:sketch="http://www.bohemiancoding.com/sketch/ns"
	 xmlns="http://www.w3.org/2000/svg" xmlns:xlink="http://www.w3.org/1999/xlink" x="0px" y="0px" viewBox="0 0 30 30"
	 style="enable-background:new 0 0 30 30;" xml:space="preserve">
<g sketch:type="MSPage">
	<g transform="translate(-405.000000, -45.000000)" sketch:type="MSArtboardGroup">
		<path d="M425.9,55l-2-7.6c-0.1-0.3-0.3-0.5-0.6-0.5h-6.6c-0.3,0-0.6,0.2-0.6,0.5l-2,7.6c-0.1,0.5,0.2,1,0.7,1h4.7v18H418
			c-0.3,0-0.5,0.2-0.5,0.5s0.2,0.5,0.5,0.5h4c0.3,0,0.5-0.2,0.5-0.5S422.3,74,422,74h-1.5V56h2v4.1c-0.6,0.2-1,0.8-1,1.4
			c0,0.8,0.7,1.5,1.5,1.5s1.5-0.7,1.5-1.5c0-0.7-0.4-1.2-1-1.4V56h1.7C425.8,56,426.1,55.6,425.9,55z M423.7,61.5
			c0,0.4-0.3,0.7-0.7,0.7s-0.7-0.3-0.7-0.7s0.3-0.7,0.7-0.7S423.7,61.1,423.7,61.5z M415.1,55l1.9-7h6.1l1.9,7H415.1z"/>
	</g>
</g>
</svg>
